<svg id="Layer_1" data-name="Layer 1" xmlns="http://www.w3.org/2000/svg" viewBox="0 0 125.26 28.46"><defs><style>.cls-1{fill:#231f20;}</style></defs><path class="cls-1" d="M155.38,112.91V137.3h-2v2h-6.1v-2h-2V127.13h-4.06V137.3h-2v2H129v-2h-2V112.91h2V117h2v-2h2v-2H129v-2h10.17v2h2V121h4.06v-8.13h2v-2h6.1v2Z" transform="translate(-126.92 -110.87)"/><path class="cls-1" d="M185.87,117h2v18.29h-2v2h-2v2H161.47v-2h-2V112.91h2V117h2v-2h2v-2h-4.07v-2H181.8v2h2v2h2Zm-8.13,2v-2h-4.07V131.2h4.07v-2h2V119Z" transform="translate(-126.92 -110.87)"/><path class="cls-1" d="M218,112.91h2v22.35h-2v2h-2v2H195.65v-2h-2v-2h-2V125.1h2v-2h6.09v2h2v6.1h4.07V112.91h2V117h2v-2h2v-2h-4.07v-2H218Z" transform="translate(-126.92 -110.87)"/><path class="cls-1" d="M250.15,112.91h2V137.3h-2v2h-6.1v-2h-2v-6.1h-2v-2h-2v8.13h-2v2H225.76v-2h-2V112.91h2V117h2v-2h2v-2h-4.06v-2h10.16v2h2V121h2v2h2V112.91h2v-2h6.1Z" transform="translate(-126.92 -110.87)"/></svg>